<?xml version="1.0" standalone="no"?>
<!DOCTYPE svg PUBLIC "-//W3C//DTD SVG 1.1//EN" "http://www.w3.org/Graphics/SVG/1.1/DTD/svg11.dtd" >
<svg xmlns="http://www.w3.org/2000/svg">
<metadata></metadata>
<defs>
<font id="flipbashregular" horiz-adv-x="1700" >
<font-face units-per-em="2048" ascent="1638" descent="-410" />
<missing-glyph horiz-adv-x="500" />
<glyph horiz-adv-x="2048" />
<glyph horiz-adv-x="2048" />
<glyph unicode="&#xd;" horiz-adv-x="508" />
<glyph unicode=" " />
<glyph unicode="!" horiz-adv-x="500" d="M0 0v400h400v-400h-400zM0 600v1000h400v-1000h-400z" />
<glyph unicode="&#x22;" horiz-adv-x="1000" d="M0 900v700h400v-400l-300 -300h-100zM500 900v700h400v-400l-300 -300h-100z" />
<glyph unicode="#" d="M0 300v400h300v200h-300v400h300v300h400v-300h200v300h400v-300h300v-400h-300v-200h300v-400h-300v-300h-400v300h-200v-300h-400v300h-300zM700 700h200v200h-200v-200z" />
<glyph unicode="$" d="M0 100v400h600v100h-600v600l300 300h300v100h400v-100h600v-400h-600v-100h600v-600l-300 -300h-300v-100h-400v100h-600zM400 1000h200v100h-150l-50 -50v-50zM1000 500h150l50 50v50h-200v-100z" />
<glyph unicode="%" d="M0 0l1 275l325 325h-26l-300 300v400l300 300h400l300 -300v-25l325 325h275v-275l-325 -325h25l300 -300v-400l-300 -300h-400l-300 300v25l-325 -325h-275zM400 1050l50 -50h100l50 50v100l-50 50h-100l-50 -50v-100zM1000 450l50 -50h100l50 50v100l-50 50h-100 l-50 -50v-100z" />
<glyph unicode="&#x26;" d="M0 300v400l150 150v450l300 300h750v-400h-600l-50 -50v-150h1050v-400h-200v-200h200v-400h-1300zM400 450l50 -50h550v200h-550l-50 -50v-100z" />
<glyph unicode="'" horiz-adv-x="500" d="M0 900v700h400v-400l-300 -300h-100z" />
<glyph unicode="(" horiz-adv-x="900" d="M0 -100v1800l300 300h500v-400h-350l-50 -50v-1500l50 -50h350v-400h-500z" />
<glyph unicode=")" horiz-adv-x="900" d="M0 0h350l50 50v1500l-50 50h-350v400h500l300 -300v-1800l-300 -300h-500v400z" />
<glyph unicode="*" d="M0 600v400h325l-225 225v275h275l425 -425l425 425h275v-275l-225 -225h325v-400h-325l225 -225v-275h-275l-425 425l-425 -425h-275v275l225 225h-325z" />
<glyph unicode="+" d="M0 600v400h600v600h400v-600h600v-400h-600v-600h-400v600h-600z" />
<glyph unicode="," horiz-adv-x="500" d="M0 -300v700h400v-400l-300 -300h-100z" />
<glyph unicode="-" d="M0 600v400h1600v-400h-1600z" />
<glyph unicode="." horiz-adv-x="500" d="M0 0v400h400v-400h-400z" />
<glyph unicode="/" d="M0 0l1 275l1324 1325h275v-275l-1325 -1325h-275z" />
<glyph unicode="0" d="M0 300v1000l300 300h1000l300 -300v-1000l-300 -300h-1000zM400 450l50 -50h700l50 50v700l-50 50h-700l-50 -50v-700z" />
<glyph unicode="1" horiz-adv-x="700" d="M0 1200v400h600v-1600h-400v1200h-200z" />
<glyph unicode="2" d="M0 0v1000h1200v150l-50 50h-1150v400h1300l300 -300v-700h-1200v-200h1200v-400h-1600z" />
<glyph unicode="3" d="M0 0v400h1150l50 50v100l-50 50h-650v400h550v150l-50 50h-1000v400h1150l300 -300v-450l150 -150v-400l-300 -300h-1300z" />
<glyph unicode="4" d="M0 750v850h400v-750l50 -50h750v800h400v-1600h-400v400h-850z" />
<glyph unicode="5" d="M0 0v400h1150l50 50v150h-1200v1000h1600v-400h-1200v-200h1200v-700l-300 -300h-1300z" />
<glyph unicode="6" d="M0 300v1000l300 300h1100v-400h-950l-50 -50v-700l50 -50h700l50 50v150h-700v400h1100v-650l-350 -350h-950z" />
<glyph unicode="7" d="M0 0l1 275l924 925h-925v400h1600v-275l-1325 -1325h-275z" />
<glyph unicode="8" d="M0 300v350l125 125l-125 125v400l300 300h1000l300 -300v-400l-125 -125l125 -125v-350l-300 -300h-1000zM400 450l50 -50h700l50 50v100l-50 50h-700l-50 -50v-100zM400 1050l50 -50h700l50 50v100l-50 50h-700l-50 -50v-100z" />
<glyph unicode="9" d="M0 600v650l350 350h950l300 -300v-1000l-300 -300h-1100v400h950l50 50v700l-50 50h-700l-50 -50v-150h700v-400h-1100z" />
<glyph unicode=":" horiz-adv-x="500" d="M0 0v400h400v-400h-400zM0 600v400h400v-400h-400z" />
<glyph unicode=";" horiz-adv-x="500" d="M0 -300v700h400v-400l-300 -300h-100zM0 600v400h400v-400h-400z" />
<glyph unicode="&#x3c;" horiz-adv-x="1200" d="M25 800l800 800h275v-275l-525 -525l525 -525v-275h-275z" />
<glyph unicode="=" d="M0 300v400h1600v-400h-1600zM0 900v400h1600v-400h-1600z" />
<glyph unicode="&#x3e;" horiz-adv-x="1200" d="M25 0v275l525 525l-525 525v275h275l800 -800l-800 -800h-275z" />
<glyph unicode="?" d="M0 1200v400h1300l300 -300v-700h-1200v400h800v150l-50 50h-1150zM400 0v400h400v-400h-400z" />
<glyph unicode="@" d="M0 300v1000l300 300h1000l300 -300v-800h-1000v600h400v-200h200v250l-50 50h-700l-50 -50v-700l50 -50h1150v-400h-1300z" />
<glyph unicode="A" d="M0 0v1000l525 525l75 75h400l75 -75l525 -525v-1000h-400v450h-800v-450h-400zM400 850h800l-400 400z" />
<glyph unicode="B" d="M0 0v1600h1150l300 -300v-450l150 -150v-400l-300 -300h-1300zM400 400h750l50 50v100l-50 50h-650v400h550v150l-50 50h-600v-800z" />
<glyph unicode="C" d="M0 300v1000l300 300h1300v-400h-1150l-50 -50v-700l50 -50h1150v-400h-1300z" />
<glyph unicode="D" d="M0 0v1600h1300l300 -300v-1000l-300 -300h-1300zM400 400h750l50 50v700l-50 50h-750v-800z" />
<glyph unicode="E" d="M0 0v1600h1600v-400h-1200v-200h800v-400h-800v-200h1200v-400h-1600z" />
<glyph unicode="F" d="M0 0v1600h1600v-400h-1200v-200h800v-400h-800v-600h-400z" />
<glyph unicode="G" d="M0 300v1000l300 300h1300v-400h-1150l-50 -50v-700l50 -50h750v200h-400v400h800v-1000h-1300z" />
<glyph unicode="H" d="M0 0v1600h400v-600h800v600h400v-1600h-400v600h-800v-600h-400z" />
<glyph unicode="I" horiz-adv-x="500" d="M0 0v1600h400v-1600h-400z" />
<glyph unicode="J" d="M0 300v500h400v-350l50 -50h700l50 50v1150h400v-1300l-300 -300h-1000z" />
<glyph unicode="K" d="M0 0v1600h400v-1600h-400zM500 600v400h225l75 75l525 525h275v-275l-525 -525l525 -525v-275h-275l-525 525l-75 75h-225z" />
<glyph unicode="L" d="M0 0v1600h400v-1200h1200v-400h-1600z" />
<glyph unicode="M" d="M0 0v1600h1300l300 -300v-1300h-400v1150l-50 50h-150v-1200h-400v1200h-200v-1200h-400z" />
<glyph unicode="N" d="M0 0v1600h275l925 -925v925h400v-1600h-275l-925 926v-926h-400z" />
<glyph unicode="O" d="M0 300v1000l300 300h1000l300 -300v-1000l-300 -300h-1000zM400 450l50 -50h700l50 50v700l-50 50h-700l-50 -50v-700z" />
<glyph unicode="P" d="M0 0v1600h1300l300 -300v-400l-300 -300h-800v400h650l50 50v100l-50 50h-750v-1200h-400z" />
<glyph unicode="Q" d="M0 300v1000l300 300h1000l300 -300v-1301h-275l-1 1h-1024zM400 450l50 -50h475l-274 275l-1 275h275l275 -275v475l-50 50h-700l-50 -50v-700z" />
<glyph unicode="R" d="M0 0v1600h1300l300 -300v-400l-125 -125l125 -125v-650h-400v550l-50 50h-650v400h650l50 50v100l-50 50h-750v-1200h-400z" />
<glyph unicode="S" d="M0 0v400h1150l50 50v150h-1200v700l300 300h1300v-400h-1150l-50 -50v-150h1200v-700l-300 -300h-1300z" />
<glyph unicode="T" d="M0 1200v400h1600v-400h-600v-1200h-400v1200h-600z" />
<glyph unicode="U" d="M0 300v1300h400v-1150l50 -50h700l50 50v1150h400v-1300l-300 -300h-1000z" />
<glyph unicode="V" d="M0 600v1000h400v-850l400 -400l400 400v850h400v-1000l-525 -525l-75 -75h-400l-75 75z" />
<glyph unicode="W" d="M0 300v1300h400v-1150l50 -50h150v1200h400v-1200h150l50 50v1150h400v-1300l-300 -300h-1000z" />
<glyph unicode="X" d="M0 0v275l525 525l-525 525v275h275l525 -525l525 525h275v-275l-525 -525l525 -525v-275h-275l-525 525l-525 -525h-275z" />
<glyph unicode="Y" d="M0 1325v275h275l525 -525l525 525h275v-275l-525 -525l-75 -75v-725h-400v725l-75 75z" />
<glyph unicode="Z" d="M0 0l1 275l924 925h-925v400h1600v-275l-925 -925h925v-400h-1600z" />
<glyph unicode="[" horiz-adv-x="900" d="M0 -400v2400h800v-400h-400v-1600h400v-400h-800z" />
<glyph unicode="\" d="M0 1600h275l1325 -1325v-275h-275l-1324 1325z" />
<glyph unicode="]" horiz-adv-x="900" d="M0 0h400v1600h-400v400h800v-2400h-800v400z" />
<glyph unicode="^" d="M0 1800v150l600 600h400l600 -600v-150h-400l-400 400l-400 -400h-400z" />
<glyph unicode="_" d="M0 -200h1600v-400h-1600v400z" />
<glyph unicode="`" horiz-adv-x="850" d="M0 2550h275l475 -475v-275h-275l-474 475z" />
<glyph unicode="a" horiz-adv-x="1360" d="M0 0v800l420 420l60 60h320l60 -60l420 -420v-800h-320v360h-640v-360h-320zM320 680h640l-320 320z" />
<glyph unicode="b" horiz-adv-x="1360" d="M0 0v1280h920l240 -240v-360l120 -120v-320l-240 -240h-1040zM320 320h600l40 40v80l-40 40h-520v320h440v120l-40 40h-480v-640z" />
<glyph unicode="c" horiz-adv-x="1360" d="M0 240v800l240 240h1040v-320h-920l-40 -40v-560l40 -40h920v-320h-1040z" />
<glyph unicode="d" horiz-adv-x="1360" d="M0 0v1280h1040l240 -240v-800l-240 -240h-1040zM320 320h600l40 40v560l-40 40h-600v-640z" />
<glyph unicode="e" horiz-adv-x="1360" d="M0 0v1280h1280v-320h-960v-160h640v-320h-640v-160h960v-320h-1280z" />
<glyph unicode="f" horiz-adv-x="1360" d="M0 0v1280h1280v-320h-960v-160h640v-320h-640v-480h-320z" />
<glyph unicode="g" horiz-adv-x="1360" d="M0 240v800l240 240h1040v-320h-920l-40 -40v-560l40 -40h600v160h-320v320h640v-800h-1040z" />
<glyph unicode="h" horiz-adv-x="1360" d="M0 0v1280h320v-480h640v480h320v-1280h-320v480h-640v-480h-320z" />
<glyph unicode="i" horiz-adv-x="400" d="M0 0v1280h320v-1280h-320z" />
<glyph unicode="j" horiz-adv-x="1360" d="M0 240v400h320v-280l40 -40h560l40 40v920h320v-1040l-240 -240h-800z" />
<glyph unicode="k" horiz-adv-x="1360" d="M0 0v1280h320v-1280h-320zM400 480v320h180l60 60l420 420h220v-220l-420 -420l420 -420v-220h-220l-420 420l-60 60h-180z" />
<glyph unicode="l" horiz-adv-x="1360" d="M0 0v1280h320v-960h960v-320h-1280z" />
<glyph unicode="m" horiz-adv-x="1360" d="M0 0v1280h1040l240 -240v-1040h-320v920l-40 40h-120v-960h-320v960h-160v-960h-320z" />
<glyph unicode="n" horiz-adv-x="1360" d="M0 0v1280h220l740 -740v740h320v-1280h-220l-740 741v-741h-320z" />
<glyph unicode="o" horiz-adv-x="1360" d="M0 240v800l240 240h800l240 -240v-800l-240 -240h-800zM320 360l40 -40h560l40 40v560l-40 40h-560l-40 -40v-560z" />
<glyph unicode="p" horiz-adv-x="1360" d="M0 0v1280h1040l240 -240v-320l-240 -240h-640v320h520l40 40v80l-40 40h-600v-960h-320z" />
<glyph unicode="q" horiz-adv-x="1360" d="M0 240v800l240 240h800l240 -240v-1041h-220l-1 1h-819zM320 360l40 -40h380l-219 220l-1 220h220l220 -220v380l-40 40h-560l-40 -40v-560z" />
<glyph unicode="r" horiz-adv-x="1360" d="M0 0v1280h1040l240 -240v-320l-100 -100l100 -100v-520h-320v440l-40 40h-520v320h520l40 40v80l-40 40h-600v-960h-320z" />
<glyph unicode="s" horiz-adv-x="1360" d="M0 0v320h920l40 40v120h-960v560l240 240h1040v-320h-920l-40 -40v-120h960v-560l-240 -240h-1040z" />
<glyph unicode="t" horiz-adv-x="1360" d="M0 960v320h1280v-320h-480v-960h-320v960h-480z" />
<glyph unicode="u" horiz-adv-x="1360" d="M0 240v1040h320v-920l40 -40h560l40 40v920h320v-1040l-240 -240h-800z" />
<glyph unicode="v" horiz-adv-x="1360" d="M0 480v800h320v-680l320 -320l320 320v680h320v-800l-420 -420l-60 -60h-320l-60 60z" />
<glyph unicode="w" horiz-adv-x="1360" d="M0 240v1040h320v-920l40 -40h120v960h320v-960h120l40 40v920h320v-1040l-240 -240h-800z" />
<glyph unicode="x" horiz-adv-x="1360" d="M0 0v220l420 420l-420 420v220h220l420 -420l420 420h220v-220l-420 -420l420 -420v-220h-220l-420 420l-420 -420h-220z" />
<glyph unicode="y" horiz-adv-x="1360" d="M0 1060v220h220l420 -420l420 420h220v-220l-420 -420l-60 -60v-580h-320v580l-60 60z" />
<glyph unicode="z" horiz-adv-x="1360" d="M0 0l1 220l739 740h-740v320h1280v-220l-740 -740h740v-320h-1280z" />
<glyph unicode="{" horiz-adv-x="1650" d="M0 1325h175l40 -160l285 -140l50 -250h-275l-195 110zM100 825l100 -50l25 -125l150 -100v-425l-250 100zM140 1125l10 -50l300 -125l-10 50zM165 1005l10 -50l300 -125l-10 50zM225 1300q175 100 425 100h50q250 0 425 -100l-25 -100q-78 -42 -425 -175 q-347 133 -425 175zM425 100v450l125 100v-345h250v345l125 -100v-450l-65 -40l-50 175h-270l-50 -175zM520 0l50 190h210l50 -190h-310zM525 1235l150 -85l150 85q-50 40 -125 40h-50q-75 0 -125 -40zM550 1025l125 -50l125 50l-50 -275v-400h-150v400zM800 775l50 250 l285 140l40 160h175l-80 -440l-195 -110h-275zM875 830l300 125l10 50l-300 -125zM900 950l300 125l10 50l-300 -125zM975 125v425l150 100l25 125l100 50l-25 -600z" />
<glyph unicode="|" horiz-adv-x="1400" d="M15 1000q0 74 60 150q-10 -40 -10 -60v-40q0 -61 110 -125h60q-50 50 -75 100q-45 75 -45 225q0 100 85 275q-15 -75 -15 -150q7 -117 65 -200l275 -125l75 -250v-125l50 -50l50 50v125l75 250l275 125q60 73 60 200q0 75 -10 150q85 -175 85 -275q0 -151 -50 -225 q-26 -50 -60 -100h75q85 65 85 125v40q0 19 -10 60q60 -75 60 -150q0 -100 -60 -150l-150 -135h-65l-160 -40l-75 -115v-75l-85 -50l-40 -75l-40 75l-85 50v75l-75 115l-160 40h-65l-150 135q-60 50 -60 150zM225 575q50 50 65 115l145 -30l65 -100q-50 -51 -50 -85v-15 q0 -35 75 -50h25l38 -132l47 62l-35 -340q-24 185 -50 225q-50 85 -114 127q-35 23 -61 23q-37 0 -75 -25q75 100 75 150q0 85 -115 85q-10 0 -35 -10zM375 760l160 -85l15 -25v62l-65 78l-110 50v-80zM545 590l17 -25v-25l38 -16l25 -24l-25 65zM615 690l35 310l35 -310 l-35 -35zM665 340l45 -65l40 135h25q75 14 75 50v15q0 35 -50 85l65 100l145 30q15 -65 65 -115q-25 10 -35 10q-115 0 -115 -85q0 -50 75 -150q-38 25 -75 25q-25 0 -60 -25q-65 -40 -115 -125q-25 -40 -50 -225zM675 500l25 25l38 15v25l17 25l-55 -25zM750 650l16 25 l159 85v80l-110 -50l-65 -78v-62z" />
<glyph unicode="}" horiz-adv-x="1550" d="M0 1400l125 -150l350 -125l10 -85l-295 95l10 -65l300 -95l10 -85l-296 100l11 -60l300 -105l175 -150l175 150l300 105l11 60l-296 -100l10 85l300 95l10 65l-295 -95l10 85l350 125l125 150l-76 -549l-624 -851l-624 851zM100 725l526 -725l-477 225zM250 750l275 -300 l85 190l-360 125v-15zM500 1450l125 -225h150l125 225l-75 -600l-121 -102l-4 3l-4 -3l-121 102zM636 1101l64 -202l64 202h-128zM774 0l526 725l-49 -500zM790 640l85 -190l275 300v15z" />
<glyph unicode="~" d="M0 1800v300l300 300h450l200 -200h200l50 50v150h400v-300l-300 -300h-450l-200 200h-200l-50 -50v-150h-400z" />
<glyph unicode="&#xa0;" />
<glyph unicode="&#xa1;" horiz-adv-x="500" d="M0 0v1000h400v-1000h-400zM0 1200v400h400v-400h-400z" />
<glyph unicode="&#xa2;" d="M0 400v800l300 300h400v100h400v-100h500v-400h-500v-600h500v-400h-500v-100h-400v100h-400zM400 550l50 -50h250v600h-250l-50 -50v-500z" />
<glyph unicode="&#xa3;" d="M0 0v400h200v200h-200v400h200v300l300 300h1100v-400h-950l-50 -50v-150h400v-400h-400v-150l50 -50h950v-400h-1600z" />
<glyph unicode="&#xa4;" d="M0 0v275l213 213l-13 12v600l13 13l-213 212v275h275l213 -212l12 12h600l13 -12l212 212h275v-275l-212 -212l12 -13v-600l-12 -12l212 -213v-275h-275l-212 213l-13 -13h-600l-12 13l-213 -213h-275zM600 650l50 -50h300l50 50v300l-50 50h-300l-50 -50v-300z" />
<glyph unicode="&#xa5;" d="M0 100v400h600v100h-600v400h325l-325 325v275h275l525 -525l525 525h275v-275l-325 -325h325v-400h-600v-100h600v-400h-600v-100h-400v100h-600z" />
<glyph unicode="&#xa6;" horiz-adv-x="500" d="M0 -400v1000h400v-1000h-400zM0 1000v1000h400v-1000h-400z" />
<glyph unicode="&#xa7;" d="M0 -200v400h500l-300 300v100h-200v900l300 300h1300v-400h-500l300 -300v-100h200v-900l-300 -300h-1300zM400 1300l100 100h-50l-50 -50v-50zM600 650l50 -50h300l50 50v300l-50 50h-300l-50 -50v-300zM1100 200h50l50 50v50z" />
<glyph unicode="&#xa8;" horiz-adv-x="1200" d="M0 1800v400h400v-400h-400zM600 1800v400h400v-400h-400z" />
<glyph unicode="&#xa9;" horiz-adv-x="1300" d="M0 900v600l300 300h600l300 -300v-600l-300 -300h-600zM200 950l150 -150h600v200h-525l-25 25v350l25 25h525v200h-600l-150 -150v-500z" />
<glyph unicode="&#xaa;" horiz-adv-x="1650" d="M0 200v1100q0 200 200 200h1100q200 0 200 -200v-1100q0 -200 -200 -200h-1100q-200 0 -200 200zM25 200q1 -175 175 -175h1101q174 0 174 176v1099q0 175 -175 175h-1100q-174 0 -175 -175v-1100z" />
<glyph unicode="&#xab;" horiz-adv-x="2000" d="M25 800l800 800h275v-275l-525 -525l525 -525v-275h-275zM825 800l800 800h275v-275l-525 -525l525 -525v-275h-275z" />
<glyph unicode="&#xac;" horiz-adv-x="1650" d="M0 200v1100q0 200 200 200h1100q200 0 200 -200v-1100q0 -200 -200 -200h-1100q-200 0 -200 200zM25 200q1 -175 175 -175h1101q174 0 174 176v1099q0 175 -175 175h-1100q-174 0 -175 -175v-1100z" />
<glyph unicode="&#xad;" d="M0 600v400h1600v-400h-1600z" />
<glyph unicode="&#xae;" horiz-adv-x="1300" d="M0 900v600l300 300h600l300 -300v-600l-300 -300h-600zM250 800h200v600h325l25 -25v-50l-25 -25h-275v-200h275l25 -25v-275h200v325l-62 63l62 62v200l-150 150h-600v-800z" />
<glyph unicode="&#xaf;" horiz-adv-x="1650" d="M0 200v1100q0 200 200 200h1100q200 0 200 -200v-1100q0 -200 -200 -200h-1100q-200 0 -200 200zM25 200q1 -175 175 -175h1101q174 0 174 176v1099q0 175 -175 175h-1100q-174 0 -175 -175v-1100z" />
<glyph unicode="&#xb0;" horiz-adv-x="674" d="M60 1164q0 116 81.5 197t197.5 81q115 0 196 -81.5t81 -196.5q0 -114 -82 -196t-197 -82q-117 0 -197 81t-80 197zM130 1163q0 -87 61 -147t148 -60t147 60t60 147t-60.5 148t-146.5 61t-147.5 -61t-61.5 -148z" />
<glyph unicode="&#xb1;" horiz-adv-x="1650" d="M0 200v1100q0 200 200 200h1100q200 0 200 -200v-1100q0 -200 -200 -200h-1100q-200 0 -200 200zM25 200q1 -175 175 -175h1101q174 0 174 176v1099q0 175 -175 175h-1100q-174 0 -175 -175v-1100z" />
<glyph unicode="&#xb2;" horiz-adv-x="1650" d="M0 200v1100q0 200 200 200h1100q200 0 200 -200v-1100q0 -200 -200 -200h-1100q-200 0 -200 200zM25 200q1 -175 175 -175h1101q174 0 174 176v1099q0 175 -175 175h-1100q-174 0 -175 -175v-1100z" />
<glyph unicode="&#xb3;" horiz-adv-x="1650" d="M0 200v1100q0 200 200 200h1100q200 0 200 -200v-1100q0 -200 -200 -200h-1100q-200 0 -200 200zM25 200q1 -175 175 -175h1101q174 0 174 176v1099q0 175 -175 175h-1100q-174 0 -175 -175v-1100z" />
<glyph unicode="&#xb4;" horiz-adv-x="850" d="M0 1800v275l475 475h275l-1 -275l-474 -475h-275z" />
<glyph unicode="&#xb5;" horiz-adv-x="1360" d="M0 0v1280h320v-960h600l40 40v920h320v-1040l-240 -240h-1040z" />
<glyph unicode="&#xb6;" horiz-adv-x="1024" d="M93 1086q0 157 107.5 253t285.5 96h443v-70h-127v-1365h-82v1365h-166v-1365h-84v738q-174 8 -275.5 102.5t-101.5 245.5z" />
<glyph unicode="&#xb7;" horiz-adv-x="508" d="M129 709q0 15 16 31l82 84q15 14 29 14q13 0 31 -16l80 -86q12 -16 12 -29q0 -15 -14 -31l-80 -88q-20 -20 -29 -20q-16 0 -29 14l-88 101q-10 13 -10 26z" />
<glyph unicode="&#xb8;" horiz-adv-x="700" d="M0 -200h150l50 50v150h400v-300l-300 -300h-300v400z" />
<glyph unicode="&#xb9;" horiz-adv-x="1650" d="M0 200v1100q0 200 200 200h1100q200 0 200 -200v-1100q0 -200 -200 -200h-1100q-200 0 -200 200zM25 200q1 -175 175 -175h1101q174 0 174 176v1099q0 175 -175 175h-1100q-174 0 -175 -175v-1100z" />
<glyph unicode="&#xba;" horiz-adv-x="1650" d="M0 200v1100q0 200 200 200h1100q200 0 200 -200v-1100q0 -200 -200 -200h-1100q-200 0 -200 200zM25 200q1 -175 175 -175h1101q174 0 174 176v1099q0 175 -175 175h-1100q-174 0 -175 -175v-1100z" />
<glyph unicode="&#xbb;" horiz-adv-x="2000" d="M25 0v275l525 525l-525 525v275h275l800 -800l-800 -800h-275zM825 0v275l525 525l-525 525v275h275l800 -800l-800 -800h-275z" />
<glyph unicode="&#xbc;" horiz-adv-x="1650" d="M0 200v1100q0 200 200 200h1100q200 0 200 -200v-1100q0 -200 -200 -200h-1100q-200 0 -200 200zM25 200q1 -175 175 -175h1101q174 0 174 176v1099q0 175 -175 175h-1100q-174 0 -175 -175v-1100z" />
<glyph unicode="&#xbd;" horiz-adv-x="1650" d="M0 200v1100q0 200 200 200h1100q200 0 200 -200v-1100q0 -200 -200 -200h-1100q-200 0 -200 200zM25 200q1 -175 175 -175h1101q174 0 174 176v1099q0 175 -175 175h-1100q-174 0 -175 -175v-1100z" />
<glyph unicode="&#xbe;" horiz-adv-x="1650" d="M0 200v1100q0 200 200 200h1100q200 0 200 -200v-1100q0 -200 -200 -200h-1100q-200 0 -200 200zM25 200q1 -175 175 -175h1101q174 0 174 176v1099q0 175 -175 175h-1100q-174 0 -175 -175v-1100z" />
<glyph unicode="&#xbf;" d="M0 300v700h1200v-400h-800v-150l50 -50h1150v-400h-1300zM800 1200v400h400v-400h-400z" />
<glyph unicode="&#xc0;" d="M0 0v1000l525 525l75 75h400l75 -75l525 -525v-1000h-400v450h-800v-450h-400zM400 850h800l-400 400zM425 2550h275l475 -475v-275h-275l-474 475z" />
<glyph unicode="&#xc1;" d="M0 0v1000l525 525l75 75h400l75 -75l525 -525v-1000h-400v450h-800v-450h-400zM400 850h800l-400 400zM425 1800v275l475 475h275l-1 -275l-474 -475h-275z" />
<glyph unicode="&#xc2;" d="M0 0v1000l525 525l75 75h400l75 -75l525 -525v-1000h-400v450h-800v-450h-400zM0 1800v150l600 600h400l600 -600v-150h-400l-400 400l-400 -400h-400zM400 850h800l-400 400z" />
<glyph unicode="&#xc3;" d="M0 0v1000l525 525l75 75h400l75 -75l525 -525v-1000h-400v450h-800v-450h-400zM0 1800v300l300 300h450l200 -200h200l50 50v150h400v-300l-300 -300h-450l-200 200h-200l-50 -50v-150h-400zM400 850h800l-400 400z" />
<glyph unicode="&#xc4;" d="M0 0v1000l525 525l75 75h400l75 -75l525 -525v-1000h-400v450h-800v-450h-400zM300 1800v400h400v-400h-400zM400 850h800l-400 400zM900 1800v400h400v-400h-400z" />
<glyph unicode="&#xc5;" d="M0 0v1000l525 525l75 75h400l75 -75l525 -525v-1000h-400v450h-800v-450h-400zM400 850h800l-400 400zM600 1800v400h400v-400h-400z" />
<glyph unicode="&#xc6;" d="M0 0v1000l525 525l75 75h1000v-400h-600v-200h600v-400h-600v-200h600v-400h-1000v450h-200v-450h-400zM400 850h200v200z" />
<glyph unicode="&#xc7;" d="M0 300v1000l300 300h1300v-400h-1150l-50 -50v-700l50 -50h1150v-400h-500v-300l-300 -300h-300v400h150l50 50v150h-400z" />
<glyph unicode="&#xc8;" d="M0 0v1600h1600v-400h-1200v-200h800v-400h-800v-200h1200v-400h-1600zM425 2550h275l475 -475v-275h-275l-474 475z" />
<glyph unicode="&#xc9;" d="M0 0v1600h1600v-400h-1200v-200h800v-400h-800v-200h1200v-400h-1600zM425 1800v275l475 475h275l-1 -275l-474 -475h-275z" />
<glyph unicode="&#xca;" d="M0 0v1600h1600v-400h-1200v-200h800v-400h-800v-200h1200v-400h-1600zM0 1800v150l600 600h400l600 -600v-150h-400l-400 400l-400 -400h-400z" />
<glyph unicode="&#xcb;" d="M0 0v1600h1600v-400h-1200v-200h800v-400h-800v-200h1200v-400h-1600zM300 1800v400h400v-400h-400zM900 1800v400h400v-400h-400z" />
<glyph unicode="&#xcc;" horiz-adv-x="500" d="M-175 2550h275l475 -475v-275h-275l-474 475zM0 0v1600h400v-1600h-400z" />
<glyph unicode="&#xcd;" horiz-adv-x="500" d="M-175 1800v275l475 475h275l-1 -275l-474 -475h-275zM0 0v1600h400v-1600h-400z" />
<glyph unicode="&#xce;" horiz-adv-x="500" d="M-600 1800v150l600 600h400l600 -600v-150h-400l-400 400l-400 -400h-400zM0 0v1600h400v-1600h-400z" />
<glyph unicode="&#xcf;" horiz-adv-x="500" d="M-300 1800v400h400v-400h-400zM0 0v1600h400v-1600h-400zM300 1800v400h400v-400h-400z" />
<glyph unicode="&#xd0;" d="M0 0v1600h1300l300 -300v-1000l-300 -300h-1300zM400 400h750l50 50v700l-50 50h-750v-200h400v-400h-400v-200z" />
<glyph unicode="&#xd1;" d="M0 0v1600h275l925 -925v925h400v-1600h-275l-925 926v-926h-400zM0 1800v300l300 300h450l200 -200h200l50 50v150h400v-300l-300 -300h-450l-200 200h-200l-50 -50v-150h-400z" />
<glyph unicode="&#xd2;" d="M0 300v1000l300 300h1000l300 -300v-1000l-300 -300h-1000zM400 450l50 -50h700l50 50v700l-50 50h-700l-50 -50v-700zM425 2550h275l475 -475v-275h-275l-474 475z" />
<glyph unicode="&#xd3;" d="M0 300v1000l300 300h1000l300 -300v-1000l-300 -300h-1000zM400 450l50 -50h700l50 50v700l-50 50h-700l-50 -50v-700zM425 1800v275l475 475h275l-1 -275l-474 -475h-275z" />
<glyph unicode="&#xd4;" d="M0 300v1000l300 300h1000l300 -300v-1000l-300 -300h-1000zM0 1800v150l600 600h400l600 -600v-150h-400l-400 400l-400 -400h-400zM400 450l50 -50h700l50 50v700l-50 50h-700l-50 -50v-700z" />
<glyph unicode="&#xd5;" d="M0 300v1000l300 300h1000l300 -300v-1000l-300 -300h-1000zM0 1800v300l300 300h450l200 -200h200l50 50v150h400v-300l-300 -300h-450l-200 200h-200l-50 -50v-150h-400zM400 450l50 -50h700l50 50v700l-50 50h-700l-50 -50v-700z" />
<glyph unicode="&#xd6;" d="M0 300v1000l300 300h1000l300 -300v-1000l-300 -300h-1000zM300 1800v400h400v-400h-400zM400 450l50 -50h700l50 50v700l-50 50h-700l-50 -50v-700zM900 1800v400h400v-400h-400z" />
<glyph unicode="&#xd7;" horiz-adv-x="1500" d="M0 100v275l425 425l-425 425v275h275l425 -425l425 425h275v-275l-425 -425l425 -425v-275h-275l-425 425l-425 -425h-275z" />
<glyph unicode="&#xd8;" d="M0 0l1 275l12 12l-13 13v1000l300 300h1000l13 -13l12 13h275v-275l-12 -12l12 -13v-1000l-300 -300h-1000l-12 13l-13 -13h-275zM400 674l525 526h-475l-50 -50v-476zM675 400h475l50 50v475z" />
<glyph unicode="&#xd9;" d="M0 300v1300h400v-1150l50 -50h700l50 50v1150h400v-1300l-300 -300h-1000zM425 2550h275l475 -475v-275h-275l-474 475z" />
<glyph unicode="&#xda;" d="M0 300v1300h400v-1150l50 -50h700l50 50v1150h400v-1300l-300 -300h-1000zM425 1800v275l475 475h275l-1 -275l-474 -475h-275z" />
<glyph unicode="&#xdb;" d="M0 300v1300h400v-1150l50 -50h700l50 50v1150h400v-1300l-300 -300h-1000zM0 1800v150l600 600h400l600 -600v-150h-400l-400 400l-400 -400h-400z" />
<glyph unicode="&#xdc;" d="M0 300v1300h400v-1150l50 -50h700l50 50v1150h400v-1300l-300 -300h-1000zM300 1800v400h400v-400h-400zM900 1800v400h400v-400h-400z" />
<glyph unicode="&#xdd;" d="M0 1325v275h275l525 -525l525 525h275v-275l-525 -525l-75 -75v-725h-400v725l-75 75zM425 1800v275l475 475h275l-1 -275l-474 -475h-275z" />
<glyph unicode="&#xde;" d="M0 0v1600h400v-300h900l300 -300v-400l-300 -300h-800v400h650l50 50v100l-50 50h-750v-900h-400z" />
<glyph unicode="&#xdf;" d="M0 0v1300l300 300h1000l300 -300v-400l-125 -125l125 -125v-350l-300 -300h-800v400h650l50 50v100l-50 50h-650v400h650l50 50v100l-50 50h-700l-50 -50v-1150h-400z" />
<glyph unicode="&#xe0;" horiz-adv-x="1360" d="M0 0v800l420 420l60 60h320l60 -60l420 -420v-800h-320v360h-640v-360h-320zM320 680h640l-320 320zM340 2040h220l380 -380v-220h-220l-379 380z" />
<glyph unicode="&#xe1;" horiz-adv-x="1360" d="M0 0v800l420 420l60 60h320l60 -60l420 -420v-800h-320v360h-640v-360h-320zM320 680h640l-320 320zM340 1440v220l380 380h220l-1 -220l-379 -380h-220z" />
<glyph unicode="&#xe2;" horiz-adv-x="1360" d="M0 0v800l420 420l60 60h320l60 -60l420 -420v-800h-320v360h-640v-360h-320zM0 1440v120l480 480h320l480 -480v-120h-320l-320 320l-320 -320h-320zM320 680h640l-320 320z" />
<glyph unicode="&#xe3;" horiz-adv-x="1360" d="M0 0v800l420 420l60 60h320l60 -60l420 -420v-800h-320v360h-640v-360h-320zM0 1440v240l240 240h360l160 -160h160l40 40v120h320v-240l-240 -240h-360l-160 160h-160l-40 -40v-120h-320zM320 680h640l-320 320z" />
<glyph unicode="&#xe4;" horiz-adv-x="1360" d="M0 0v800l420 420l60 60h320l60 -60l420 -420v-800h-320v360h-640v-360h-320zM240 1440v320h320v-320h-320zM320 680h640l-320 320zM720 1440v320h320v-320h-320z" />
<glyph unicode="&#xe5;" horiz-adv-x="1360" d="M0 0v800l420 420l60 60h320l60 -60l420 -420v-800h-320v360h-640v-360h-320zM320 680h640l-320 320zM480 1440v320h320v-320h-320z" />
<glyph unicode="&#xe6;" horiz-adv-x="1360" d="M0 0v800l420 420l60 60h800v-320h-480v-160h480v-320h-480v-160h480v-320h-800v360h-160v-360h-320zM320 680h160v160z" />
<glyph unicode="&#xe7;" horiz-adv-x="1360" d="M0 240v800l240 240h1040v-320h-920l-40 -40v-560l40 -40h920v-320h-400v-240l-240 -240h-240v320h120l40 40v120h-320z" />
<glyph unicode="&#xe8;" horiz-adv-x="1360" d="M0 0v1280h1280v-320h-960v-160h640v-320h-640v-160h960v-320h-1280zM340 2040h220l380 -380v-220h-220l-379 380z" />
<glyph unicode="&#xe9;" horiz-adv-x="1360" d="M0 0v1280h1280v-320h-960v-160h640v-320h-640v-160h960v-320h-1280zM340 1440v220l380 380h220l-1 -220l-379 -380h-220z" />
<glyph unicode="&#xea;" horiz-adv-x="1360" d="M0 0v1280h1280v-320h-960v-160h640v-320h-640v-160h960v-320h-1280zM0 1440v120l480 480h320l480 -480v-120h-320l-320 320l-320 -320h-320z" />
<glyph unicode="&#xeb;" horiz-adv-x="1360" d="M0 0v1280h1280v-320h-960v-160h640v-320h-640v-160h960v-320h-1280zM240 1440v320h320v-320h-320zM720 1440v320h320v-320h-320z" />
<glyph unicode="&#xec;" horiz-adv-x="400" d="M-140 2040h220l380 -380v-220h-220l-379 380zM0 0v1280h320v-1280h-320z" />
<glyph unicode="&#xed;" horiz-adv-x="400" d="M-140 1440v220l380 380h220l-1 -220l-379 -380h-220zM0 0v1280h320v-1280h-320z" />
<glyph unicode="&#xee;" horiz-adv-x="400" d="M-480 1440v120l480 480h320l480 -480v-120h-320l-320 320l-320 -320h-320zM0 0v1280h320v-1280h-320z" />
<glyph unicode="&#xef;" horiz-adv-x="400" d="M-240 1440v320h320v-320h-320zM0 0v1280h320v-1280h-320zM240 1440v320h320v-320h-320z" />
<glyph unicode="&#xf0;" horiz-adv-x="1360" d="M0 0v1280h1040l240 -240v-800l-240 -240h-1040zM320 320h600l40 40v560l-40 40h-600v-160h320v-320h-320v-160z" />
<glyph unicode="&#xf1;" horiz-adv-x="1360" d="M0 0v1280h220l740 -740v740h320v-1280h-220l-740 741v-741h-320zM0 1440v240l240 240h360l160 -160h160l40 40v120h320v-240l-240 -240h-360l-160 160h-160l-40 -40v-120h-320z" />
<glyph unicode="&#xf2;" horiz-adv-x="1360" d="M0 240v800l240 240h800l240 -240v-800l-240 -240h-800zM320 360l40 -40h560l40 40v560l-40 40h-560l-40 -40v-560zM340 2040h220l380 -380v-220h-220l-379 380z" />
<glyph unicode="&#xf3;" horiz-adv-x="1360" d="M0 240v800l240 240h800l240 -240v-800l-240 -240h-800zM320 360l40 -40h560l40 40v560l-40 40h-560l-40 -40v-560zM340 1440v220l380 380h220l-1 -220l-379 -380h-220z" />
<glyph unicode="&#xf4;" horiz-adv-x="1360" d="M0 240v800l240 240h800l240 -240v-800l-240 -240h-800zM0 1440v120l480 480h320l480 -480v-120h-320l-320 320l-320 -320h-320zM320 360l40 -40h560l40 40v560l-40 40h-560l-40 -40v-560z" />
<glyph unicode="&#xf5;" horiz-adv-x="1360" d="M0 240v800l240 240h800l240 -240v-800l-240 -240h-800zM0 1440v240l240 240h360l160 -160h160l40 40v120h320v-240l-240 -240h-360l-160 160h-160l-40 -40v-120h-320zM320 360l40 -40h560l40 40v560l-40 40h-560l-40 -40v-560z" />
<glyph unicode="&#xf6;" horiz-adv-x="1360" d="M0 240v800l240 240h800l240 -240v-800l-240 -240h-800zM240 1440v320h320v-320h-320zM320 360l40 -40h560l40 40v560l-40 40h-560l-40 -40v-560zM720 1440v320h320v-320h-320z" />
<glyph unicode="&#xf7;" d="M0 600v400h1600v-400h-1600zM600 0v400h400v-400h-400zM600 1200v400h400v-400h-400z" />
<glyph unicode="&#xf8;" horiz-adv-x="1360" d="M0 0l1 220l9 10l-10 10v800l240 240h800l10 -10l10 10h220v-220l-10 -10l10 -10v-800l-240 -240h-800l-10 10l-10 -10h-220zM320 539l420 421h-380l-40 -40v-381zM540 320h380l40 40v380z" />
<glyph unicode="&#xf9;" horiz-adv-x="1360" d="M0 240v1040h320v-920l40 -40h560l40 40v920h320v-1040l-240 -240h-800zM340 2040h220l380 -380v-220h-220l-379 380z" />
<glyph unicode="&#xfa;" horiz-adv-x="1360" d="M0 240v1040h320v-920l40 -40h560l40 40v920h320v-1040l-240 -240h-800zM340 1440v220l380 380h220l-1 -220l-379 -380h-220z" />
<glyph unicode="&#xfb;" horiz-adv-x="1360" d="M0 240v1040h320v-920l40 -40h560l40 40v920h320v-1040l-240 -240h-800zM0 1440v120l480 480h320l480 -480v-120h-320l-320 320l-320 -320h-320z" />
<glyph unicode="&#xfc;" horiz-adv-x="1360" d="M0 240v1040h320v-920l40 -40h560l40 40v920h320v-1040l-240 -240h-800zM240 1440v320h320v-320h-320zM720 1440v320h320v-320h-320z" />
<glyph unicode="&#xfd;" horiz-adv-x="1360" d="M0 1060v220h220l420 -420l420 420h220v-220l-420 -420l-60 -60v-580h-320v580l-60 60zM340 1440v220l380 380h220l-1 -220l-379 -380h-220z" />
<glyph unicode="&#xfe;" horiz-adv-x="1360" d="M0 0v1280h320v-240h720l240 -240v-320l-240 -240h-640v320h520l40 40v80l-40 40h-600v-720h-320z" />
<glyph unicode="&#xff;" horiz-adv-x="1360" d="M0 1060v220h220l420 -420l420 420h220v-220l-420 -420l-60 -60v-580h-320v580l-60 60zM240 1440v320h320v-320h-320zM720 1440v320h320v-320h-320z" />
<glyph unicode="&#x2c6;" d="M0 1800v150l600 600h400l600 -600v-150h-400l-400 400l-400 -400h-400z" />
<glyph unicode="&#x2dc;" d="M0 1800v300l300 300h450l200 -200h200l50 50v150h400v-300l-300 -300h-450l-200 200h-200l-50 -50v-150h-400z" />
<glyph unicode="&#x2000;" horiz-adv-x="1275" />
<glyph unicode="&#x2001;" horiz-adv-x="2550" />
<glyph unicode="&#x2002;" horiz-adv-x="1275" />
<glyph unicode="&#x2003;" horiz-adv-x="2550" />
<glyph unicode="&#x2004;" horiz-adv-x="850" />
<glyph unicode="&#x2005;" horiz-adv-x="637" />
<glyph unicode="&#x2006;" horiz-adv-x="425" />
<glyph unicode="&#x2007;" horiz-adv-x="425" />
<glyph unicode="&#x2008;" horiz-adv-x="318" />
<glyph unicode="&#x2009;" horiz-adv-x="510" />
<glyph unicode="&#x200a;" horiz-adv-x="141" />
<glyph unicode="&#x2010;" d="M0 600v400h1600v-400h-1600z" />
<glyph unicode="&#x2011;" d="M0 600v400h1600v-400h-1600z" />
<glyph unicode="&#x2012;" d="M0 600v400h1600v-400h-1600z" />
<glyph unicode="&#x2013;" d="M0 600v400h1600v-400h-1600z" />
<glyph unicode="&#x2014;" d="M0 600v400h1600v-400h-1600z" />
<glyph unicode="&#x2018;" horiz-adv-x="500" d="M0 900v400l300 300h100v-700h-400z" />
<glyph unicode="&#x2019;" horiz-adv-x="500" d="M0 900v700h400v-400l-300 -300h-100z" />
<glyph unicode="&#x201a;" horiz-adv-x="500" d="M0 -300v700h400v-400l-300 -300h-100z" />
<glyph unicode="&#x201c;" horiz-adv-x="1000" d="M0 900v400l300 300h100v-700h-400zM500 900v400l300 300h100v-700h-400z" />
<glyph unicode="&#x201d;" horiz-adv-x="1000" d="M0 900v700h400v-400l-300 -300h-100zM500 900v700h400v-400l-300 -300h-100z" />
<glyph unicode="&#x201e;" horiz-adv-x="1000" d="M0 -300v700h400v-400l-300 -300h-100zM500 -300v700h400v-400l-300 -300h-100z" />
<glyph unicode="&#x2022;" horiz-adv-x="1024" d="M216 718q0 123 87 209t210 86q122 0 208.5 -86.5t86.5 -208.5t-87.5 -209.5t-209.5 -87.5q-123 0 -209 87t-86 210z" />
<glyph unicode="&#x2026;" horiz-adv-x="1400" d="M0 0v400h400v-400h-400zM450 0v400h400v-400h-400zM900 0v400h400v-400h-400z" />
<glyph unicode="&#x202f;" horiz-adv-x="510" />
<glyph unicode="&#x2039;" horiz-adv-x="1200" d="M25 800l800 800h275v-275l-525 -525l525 -525v-275h-275z" />
<glyph unicode="&#x203a;" horiz-adv-x="1200" d="M25 0v275l525 525l-525 525v275h275l800 -800l-800 -800h-275z" />
<glyph unicode="&#x205f;" horiz-adv-x="637" />
<glyph unicode="&#x20ac;" d="M0 600v400h200v300l300 300h1100v-400h-950l-50 -50v-150h400v-400h-400v-150l50 -50h950v-400h-1100l-300 300v300h-200z" />
<glyph unicode="&#x2122;" horiz-adv-x="1750" d="M0 1400v200h800v-200h-300v-600h-200v600h-300zM850 800v800h650l150 -150v-650h-200v575l-25 25h-75v-600h-200v600h-100v-600h-200z" />
<glyph unicode="&#xe000;" horiz-adv-x="1280" d="M0 0v1280h1280v-1280h-1280z" />
</font>
</defs>
</svg>
